<svg width="10" height="12" viewBox="0 0 10 12" fill="none" xmlns="http://www.w3.org/2000/svg">
<path fill-rule="evenodd" clip-rule="evenodd" d="M9.16638 5.45459C9.39797 5.45459 9.59465 5.53409 9.75674 5.69319C9.91885 5.8523 10.0001 6.04549 10 6.27272V11.1818C10 11.409 9.91885 11.6023 9.75695 11.7615C9.59483 11.9205 9.39818 12 9.16659 12H0.833316C0.60191 12 0.405104 11.9204 0.24305 11.7615C0.0810269 11.6023 0 11.409 0 11.1818V6.27281C0 6.0454 0.0809965 5.85218 0.24305 5.69319C0.405104 5.53409 0.60191 5.45459 0.833316 5.45459H1.11106V3.81814C1.11106 2.77267 1.4929 1.87505 2.25684 1.12502C3.02065 0.375017 3.93502 0 4.99995 0C6.06492 0 6.97911 0.375017 7.74298 1.12505C8.50692 1.87505 8.88876 2.7727 8.88876 3.81814V5.45459H9.16638ZM2.77775 3.81814V5.45459H7.22216V3.81814C7.22216 3.2159 7.00514 2.70163 6.57124 2.27559C6.13713 1.84944 5.61357 1.63646 5.00005 1.63646C4.38658 1.63646 3.8629 1.84947 3.42882 2.27559C2.9948 2.70166 2.77775 3.2159 2.77775 3.81814Z" fill="#083AEB"/>
</svg>
